<?xml version="1.0" encoding="UTF-8"?>
<!DOCTYPE svg PUBLIC "-//W3C//DTD SVG 1.1//EN" "http://www.w3.org/Graphics/SVG/1.1/DTD/svg11.dtd">
<!-- Creator: CorelDRAW X7 -->
<svg xmlns="http://www.w3.org/2000/svg" xml:space="preserve" width="210mm" height="297mm" version="1.1" style="shape-rendering:geometricPrecision; text-rendering:geometricPrecision; image-rendering:optimizeQuality; fill-rule:evenodd; clip-rule:evenodd"
viewBox="0 0 21000 29700"
 xmlns:xlink="http://www.w3.org/1999/xlink">
 <defs>
  <style type="text/css">
   <![CDATA[
    .str3 {stroke:#332C2B;stroke-width:26.46}
    .str2 {stroke:#1F3A44;stroke-width:26.46}
    .str0 {stroke:#1F3A44;stroke-width:52.92}
    .str1 {stroke:#1F3A44;stroke-width:35.28}
    .fil2 {fill:none}
    .fil5 {fill:#181718}
    .fil0 {fill:#1F3A44}
    .fil3 {fill:#2CAFCA}
    .fil1 {fill:#E6E6E6}
    .fil4 {fill:#FF56F1}
    .fil6 {fill:#01212C;fill-rule:nonzero}
   ]]>
  </style>
 </defs>
 <g id="Layer_x0020_1">
  <metadata id="CorelCorpID_0Corel-Layer"/>
  <g id="_2082745365808">
   <path class="fil0" d="M2898 2130c-10,-29 -15,-61 -15,-92 0,-158 127,-286 285,-286 39,0 75,8 109,22 21,-210 199,-374 414,-374 220,0 399,169 416,384 34,-14 72,-22 111,-22 158,0 286,128 286,285 0,37 -7,74 -21,108l-1585 -25z"/>
   <path class="fil1 str0" d="M3412 3711l0 91c0,77 51,139 113,139l243 0c62,0 80,63 80,140l0 101 0 323c0,45 -31,83 -68,83l0 0c-37,0 -67,-38 -67,-83l1 -390c1,-22 -14,-39 -32,-39l-915 0c-18,0 -32,17 -32,39l1 390c0,45 -30,83 -67,83l0 0c-37,0 -67,-38 -67,-83l0 -323 0 -101c0,-77 24,-140 86,-140l237 0c62,0 114,-62 113,-139l-2 -101c161,25 248,15 376,10z"/>
   <g>
    <path class="fil2 str0" d="M4788 4457l0 -310c0,-31 26,-57 57,-57l969 0c31,0 56,26 56,57l0 310m-624 -367l0 -144 -77 0c-11,0 -21,-9 -21,-21l0 -64c0,-11 10,-20 21,-20l77 0 0 -75 -136 0c-11,0 -21,-9 -21,-20l0 -65c0,-11 10,-20 21,-20l431 0c11,0 20,9 20,20l0 65c0,11 -9,20 -20,20l-134 0 0 75 75 0c11,0 20,9 20,20l0 64c0,12 -9,21 -20,21l-75 0 0 144m464 466c47,0 86,-41 86,-91 0,-50 -39,-91 -86,-91m-1082 175c-48,0 -86,-41 -86,-91 0,-50 38,-91 86,-91"/>
    <rect class="fil2 str0" x="4865" y="4160" width="925" height="600" rx="46" ry="46"/>
    <rect class="fil3" x="5462" y="4370" width="206.367" height="98.6995"/>
    <rect class="fil4" x="5462" y="4345" width="206.367" height="25.6376"/>
    <circle class="fil0" cx="5490" cy="4537" r="18"/>
    <circle class="fil0" cx="5565" cy="4537" r="18"/>
    <circle class="fil0" cx="5640" cy="4537" r="18"/>
    <circle class="fil3 str1" cx="5181" cy="4457" r="180"/>
    <path class="fil2 str1" d="M5164 4344c68,7 122,61 130,129"/>
   </g>
   <g>
    <ellipse class="fil4" cx="1195" cy="3725" rx="57" ry="55"/>
    <polygon class="fil3" points="882,4026 1517,4026 1431,3907 968,3905 "/>
    <path class="fil2 str0" d="M871 4025l89 -121 471 3 96 115m-346 -117l-1 -117c-31,-4 -55,-30 -55,-60 0,-33 28,-60 63,-60 34,0 62,27 62,60 0,31 -23,56 -55,60l1 117m-351 121l733 0c183,0 332,149 332,332 0,202 0,321 0,524 -8,71 -171,128 -295,83 -83,-30 -137,-133 -251,-133l-280 1c-118,0 -131,29 -248,110 -91,64 -318,1 -323,-64 0,-203 0,-319 0,-521 0,-183 150,-332 332,-332z"/>
    <ellipse class="fil3 str0" cx="879" cy="4364" rx="214" ry="203"/>
    <path class="fil1 str0" d="M871 4230l0 0c19,0 34,15 34,33l0 67 66 0c19,0 34,15 34,34l0 0c0,18 -15,34 -34,34l-66 0 0 66c0,19 -15,34 -34,34l0 0c-19,0 -34,-15 -34,-34l0 -66 -66 0c-19,0 -34,-16 -34,-34l0 0c0,-19 15,-34 34,-34l66 0 0 -67c0,-18 15,-33 34,-33z"/>
    <g>
     <circle class="fil4 str0" cx="1584" cy="4305" r="47"/>
     <circle class="fil4 str0" cx="1501" cy="4422" r="47"/>
    </g>
    <ellipse class="fil2 str0" cx="1545" cy="4364" rx="214" ry="203"/>
    <g>
     <circle class="fil0" cx="1086" cy="4700" r="24"/>
     <circle class="fil0" cx="1202" cy="4700" r="24"/>
     <circle class="fil0" cx="1310" cy="4700" r="24"/>
    </g>
   </g>
   <path class="fil1 str0" d="M3531 3526l0 141c0,117 78,213 174,213l373 0c95,0 123,97 123,214l0 156 0 496c0,70 -47,128 -103,128l0 0c-57,0 -104,-58 -104,-128l2 -599c1,-33 -22,-60 -49,-60l-1406 0c-27,0 -49,27 -49,60l2 599c0,70 -47,128 -104,128l0 0c-57,0 -103,-58 -103,-128l0 -496 0 -156c0,-117 37,-214 133,-214l363 0c95,0 175,-96 173,-213l-2 -156c247,39 380,24 577,15z"/>
   <rect class="fil4 str0" x="3155" y="2548" width="178" height="274" rx="16" ry="14"/>
   <rect class="fil3 str0" x="2531" y="2979" width="1442" height="800" rx="198" ry="280"/>
   <path class="fil1 str0" d="M1062 2957l49 0 0 -216 126 0 0 216 917 0c176,-140 608,-239 1114,-239 505,0 937,99 1113,239l818 0 0 -216 126 0 0 216 148 0c77,0 140,63 140,139l0 0c0,77 -63,140 -140,140l-1092 0c-176,140 -608,239 -1113,239 -506,0 -938,-99 -1114,-239l-1092 0c-77,0 -140,-63 -140,-140l0 0c0,-76 63,-139 140,-139z"/>
   <ellipse class="fil3 str0" cx="1170" cy="2638" rx="680" ry="59"/>
   <ellipse class="fil3 str0" cx="5241" cy="2644" rx="680" ry="59"/>
   <rect class="fil2 str0" x="2839" y="2897" width="845" height="261" rx="130" ry="130"/>
   <g>
    <rect class="fil4 str2" x="3045" y="2972" width="82.4764" height="110.518"/>
    <rect class="fil4 str2" x="3162" y="2972" width="82.4764" height="110.518"/>
    <rect class="fil4 str2" x="3279" y="2972" width="82.4764" height="110.518"/>
    <rect class="fil4 str2" x="3396" y="2972" width="82.4764" height="110.518"/>
   </g>
   <g>
    <rect class="fil4 str2" x="1241" y="3043" width="82.4764" height="110.518"/>
    <rect class="fil4 str2" x="1358" y="3043" width="82.4764" height="110.518"/>
    <rect class="fil4 str2" x="1475" y="3043" width="82.4764" height="110.518"/>
    <rect class="fil4 str2" x="1592" y="3043" width="82.4764" height="110.518"/>
   </g>
   <ellipse class="fil3 str0" cx="3221" cy="2548" rx="680" ry="59"/>
   <g>
    <rect class="fil1 str2" x="3049" y="3551" width="74.6354" height="143.508"/>
    <rect class="fil1 str2" x="3155" y="3551" width="74.6354" height="143.508"/>
    <rect class="fil1 str2" x="3261" y="3551" width="74.6354" height="143.508"/>
    <rect class="fil1 str2" x="3367" y="3551" width="74.6354" height="143.508"/>
   </g>
   <g>
    <rect class="fil4 str2" x="4848" y="3044" width="82.4764" height="110.518"/>
    <rect class="fil4 str2" x="4965" y="3044" width="82.4764" height="110.518"/>
    <rect class="fil4 str2" x="5083" y="3044" width="82.4764" height="110.518"/>
    <rect class="fil4 str2" x="5200" y="3044" width="82.4764" height="110.518"/>
   </g>
   <path class="fil0" d="M2775 5216l1192 0c12,0 22,-10 22,-23l0 0c0,-12 -10,-22 -22,-22l-1192 0c-12,0 -23,10 -23,22l0 0c0,13 11,23 23,23z"/>
   <path class="fil0" d="M2695 5088l937 0c13,0 23,-10 23,-22l0 0c0,-13 -10,-23 -23,-23l-937 0c-13,0 -23,10 -23,23l0 0c0,12 10,22 23,22z"/>
   <path class="fil0" d="M1837 3362l0 0c11,0 20,9 20,20l0 62 62 0c11,0 20,9 20,20l0 0c0,11 -9,20 -20,20l-62 0 0 61c0,11 -9,20 -20,20l0 0c-11,0 -20,-9 -20,-20l0 -61 -62 0c-11,0 -20,-9 -20,-20l0 0c0,-11 9,-20 20,-20l62 0 0 -62c0,-11 9,-20 20,-20z"/>
   <path class="fil0" d="M4430 4560l0 0c8,-8 20,-8 28,0l44 44 43 -44c8,-8 21,-8 29,0l0 0c7,8 7,21 0,28l-44 44 44 44c7,7 7,20 0,28l0 0c-8,8 -21,8 -29,0l-43 -44 -44 44c-8,8 -20,8 -28,0l0 0c-8,-8 -8,-21 0,-28l44 -44 -44 -44c-8,-7 -8,-20 0,-28z"/>
   <g>
    <polygon class="fil2 str0" points="4489,5107 5212,5107 5212,5359 4489,5359 "/>
    <polygon class="fil3 str0" points="4693,5107 4877,5107 4877,5359 4693,5359 "/>
    <polygon class="fil3 str0" points="4489,5107 4687,5107 4687,5359 4489,5359 "/>
    <g>
     <polygon class="fil2 str0" points="4404,5011 5313,5011 5313,5455 4404,5455 "/>
     <polygon class="fil2 str0" points="5410,5313 5313,5313 5313,5153 5410,5153 "/>
    </g>
   </g>
   <path class="fil3" d="M1711 2171c-14,-39 -20,-80 -20,-121 0,-207 167,-374 374,-374 50,0 98,10 142,28 28,-275 260,-490 543,-490 287,0 523,222 544,504 45,-19 94,-29 146,-29 206,0 374,167 374,374 0,48 -9,96 -28,140l-2075 -32z"/>
   <path class="fil5" d="M4840 2258c41,0 76,-26 90,-62l723 0c14,36 48,62 89,62 53,0 96,-43 96,-95 0,-53 -43,-96 -96,-96 -41,0 -75,26 -89,62l-723 0c-14,-36 -49,-62 -90,-62 -52,0 -95,43 -95,96 0,52 43,95 95,95z"/>
   <g>
    <path class="fil2 str2" d="M2957 4507l0 -163c0,-17 13,-30 29,-30l509 0c16,0 30,13 30,30l0 163m-328 -193l0 -76 -41 0c-5,0 -10,-5 -10,-11l0 -33c0,-6 5,-11 10,-11l41 0 0 -39 -71 0c-6,0 -11,-5 -11,-11l0 -34c0,-6 5,-10 11,-10l226 0c6,0 10,4 10,10l0 34c0,6 -4,11 -10,11l-70 0 0 39 39 0c6,0 10,5 10,11l0 33c0,6 -4,11 -10,11l-39 0 0 76m243 245c25,0 45,-22 45,-48 0,-27 -20,-48 -45,-48m-568 92c-25,0 -45,-22 -45,-48 0,-26 20,-48 45,-48"/>
    <rect class="fil2 str2" x="2997" y="4350" width="486" height="315" rx="24" ry="24"/>
    <rect class="fil3 str2" x="3310" y="4461" width="108.371" height="51.831"/>
    <rect class="fil4 str2" x="3310" y="4448" width="108.371" height="13.4633"/>
    <circle class="fil0 str3" cx="3325" cy="4549" r="9"/>
    <circle class="fil0 str3" cx="3364" cy="4549" r="9"/>
    <circle class="fil0 str3" cx="3404" cy="4549" r="9"/>
    <circle class="fil3 str2" cx="3163" cy="4507" r="95"/>
    <path class="fil2 str2" d="M3154 4447c36,4 64,32 68,68"/>
   </g>
   <path class="fil0" d="M4385 3514l0 0c8,-7 21,-7 29,0l43 44 44 -44c8,-7 20,-7 28,0l0 0c8,8 8,21 0,29l-44 43 44 44c8,8 8,20 0,28l0 0c-8,8 -20,8 -28,0l-44 -44 -43 44c-8,8 -21,8 -29,0l0 0c-7,-8 -7,-20 0,-28l44 -44 -44 -43c-7,-8 -7,-21 0,-29z"/>
   <path class="fil0" d="M2594 5417l0 0c8,-8 21,-8 29,0l43 43 44 -43c7,-8 20,-8 28,0l0 0c8,8 8,20 0,28l-44 44 44 43c8,8 8,21 0,28l0 0c-8,8 -21,8 -28,0l-44 -43 -43 43c-8,8 -21,8 -29,0l0 0c-7,-7 -7,-20 0,-28l44 -43 -44 -44c-7,-8 -7,-20 0,-28z"/>
   <path class="fil0" d="M780 2069l0 0c7,-8 20,-8 28,0l43 44 44 -44c8,-8 20,-8 28,0l0 0c8,8 8,21 0,28l-43 44 43 43c8,8 8,21 0,29l0 0c-8,7 -20,7 -28,0l-44 -44 -43 44c-8,7 -21,7 -28,0l0 0c-8,-8 -8,-21 0,-29l43 -43 -43 -44c-8,-7 -8,-20 0,-28z"/>
   <path class="fil0" d="M1934 2323l0 0c8,-7 20,-7 28,0l44 44 43 -44c8,-7 21,-7 28,0l0 0c8,8 8,21 0,29l-43 43 43 44c8,7 8,20 0,28l0 0c-7,8 -20,8 -28,0l-43 -44 -44 44c-8,8 -20,8 -28,0l0 0c-8,-8 -8,-21 0,-28l43 -44 -43 -43c-8,-8 -8,-21 0,-29z"/>
   <g>
    <polygon class="fil0" points="1012,5280 1566,5280 1566,5325 1012,5325 "/>
    <polygon class="fil0" points="839,5388 1394,5388 1394,5433 839,5433 "/>
    <polygon class="fil0" points="1012,5280 1450,5280 1450,5325 1012,5325 "/>
    <polygon class="fil0" points="839,5388 1394,5388 1394,5433 839,5433 "/>
    <polygon class="fil0" points="716,5280 914,5280 914,5325 716,5325 "/>
    <polygon class="fil0" points="823,5160 1100,5160 1100,5205 823,5205 "/>
    <polygon class="fil0" points="1161,5160 1377,5160 1377,5205 1161,5205 "/>
   </g>
   <g>
    <path class="fil6" d="M87 3740l97 -42 14 36 27 59 -95 45 -29 -63 -14 -35zm-70 -207l102 -30 13 50 16 49 -100 35 -17 -54 -14 -50zm-44 -215l105 -14 1 2 9 62 8 36 -104 22 -8 -39 -10 -66 -1 -3zm-16 -217l106 -2 0 21 3 62 2 18 -106 11 -2 -23 -2 -66 -1 -21zm11 -217l106 9 -5 41 -4 62 0 -1 -106 -2 0 -3 5 -66 4 -40zm38 -214l104 21 -14 60 -8 42 -104 -18 9 -46 13 -59zm66 -210l99 37 -7 17 -20 58 -7 21 -101 -29 7 -25 22 -62 7 -17zm90 -198l95 48 -18 34 -27 56 -1 1 -98 -40 2 -6 29 -59 18 -34zm115 -184l88 58 -32 47 -25 39 -91 -55 28 -43 32 -46zm139 -171l78 72 -5 5 -42 48 -20 24 -83 -66 22 -27 46 -51 4 -5zm159 -150l68 82 -4 3 -27 23 -26 24 -20 17 -73 -76 21 -20 29 -25 29 -25 3 -3zm176 -127l58 88 -27 18 -29 19 -29 21 -62 -86 30 -22 32 -21 27 -17zm192 -105l46 95 -22 10 -32 16 -31 17 -6 3 -53 -92 9 -4 33 -18 34 -17 22 -10zm203 -80l34 101 -16 5 -33 11 -34 12 -14 6 -40 -98 17 -7 35 -13 36 -12 15 -5zm212 -53l20 104 -7 1 -35 7 -35 8 -23 6 -26 -103 25 -6 37 -8 38 -8 6 -1zm184 -24l8 106 -36 3 -35 4 -13 -105 37 -4 39 -4zm-60 -220l522 239 -481 313 -41 -552z"/>
   </g>
  </g>
 </g>
</svg>
