<?xml version="1.0" encoding="UTF-8"?>
<!DOCTYPE svg PUBLIC "-//W3C//DTD SVG 1.1//EN" "http://www.w3.org/Graphics/SVG/1.1/DTD/svg11.dtd">
<!-- Creator: CorelDRAW X7 -->
<svg xmlns="http://www.w3.org/2000/svg" xml:space="preserve" width="210mm" height="297mm" version="1.1" style="shape-rendering:geometricPrecision; text-rendering:geometricPrecision; image-rendering:optimizeQuality; fill-rule:evenodd; clip-rule:evenodd"
viewBox="0 0 21000 29700"
 xmlns:xlink="http://www.w3.org/1999/xlink">
 <defs>
  <style type="text/css">
   <![CDATA[
    .str1 {stroke:#1F3A44;stroke-width:70.56}
    .str0 {stroke:#2CAFCA;stroke-width:70.56}
    .str4 {stroke:#1F3A44;stroke-width:52.92}
    .str2 {stroke:#1F3A44;stroke-width:52.92}
    .str3 {stroke:#1F3A44;stroke-width:35.28}
    .fil0 {fill:none}
    .fil1 {fill:#1F3A44}
    .fil2 {fill:#2CAFCA}
    .fil4 {fill:#E6E6E6}
    .fil3 {fill:#FF56F1}
    .fil5 {fill:#1F3A44;fill-rule:nonzero}
   ]]>
  </style>
    <clipPath id="id0">
     <path d="M7256 15639l399 -112 202 114 171 610 -557 157 -215 -769z"/>
    </clipPath>
 </defs>
 <g id="Layer_x0020_1">
  <metadata id="CorelCorpID_0Corel-Layer"/>
  <g id="_2082745348400">
   <path class="fil0 str0" d="M8737 14690c-27,8 -55,14 -83,20l0 159 -336 0m-640 -619c-48,-87 -83,-181 -101,-281l-160 0 0 -336 160 0c24,-131 75,-251 147,-356l-113 -113 238 -238 113 113c105,-72 225,-123 356,-147l0 -160 336 0 0 160c130,24 251,75 356,147l113 -113 237 238 -113 113c73,105 124,225 148,356l159 0 0 336 -159 0c-8,40 -18,79 -30,117"/>
   <path class="fil0 str1" d="M7865 13906c-6,-35 -9,-70 -9,-105 0,-174 72,-341 199,-460"/>
   <path class="fil1" d="M8486 13724c42,0 77,34 77,77 0,42 -35,77 -77,77 -43,0 -77,-35 -77,-77 0,-43 34,-77 77,-77z"/>
   <path class="fil0 str0" d="M8486 13520c155,0 280,126 280,281 0,155 -125,280 -280,280 -155,0 -281,-125 -281,-280 0,-155 126,-281 281,-281z"/>
   <path class="fil0 str1" d="M8049 14254c-27,-26 -52,-55 -74,-86"/>
   <path class="fil0 str1" d="M8649 13193c275,73 466,323 466,608 0,92 -32,207 -71,289"/>
   <path class="fil0 str1" d="M8726 14382c-67,28 -139,44 -212,47"/>
   <path class="fil0 str1" d="M8329 13191c51,-13 104,-20 157,-20 15,0 31,1 47,2"/>
   <path class="fil1" d="M8486 13686c63,0 114,51 114,115 0,63 -51,114 -114,114 -63,0 -115,-51 -115,-114 0,-64 52,-115 115,-115z"/>
   <path class="fil0 str2" d="M8918 14090l2847 0c107,0 194,88 194,195l0 1867c0,107 -87,194 -194,194l-2847 0c-107,0 -194,-87 -194,-194l0 -1867c0,-107 87,-195 194,-195z"/>
   <path class="fil0 str2" d="M9058 14378l2567 0c75,0 136,57 136,127l0 1465c0,70 -61,126 -136,126l-2567 0c-75,0 -136,-56 -136,-126l0 -1465c0,-70 61,-127 136,-127z"/>
   <polygon class="fil2 str2" points="8739,16346 11913,16346 12340,16898 8374,16898 "/>
   <polygon class="fil1" points="10605,14585 11543,14585 11543,14659 10605,14659 "/>
   <polygon class="fil1" points="10411,14705 11543,14705 11543,14779 10411,14779 "/>
   <polygon class="fil1" points="10411,14826 11543,14826 11543,14900 10411,14900 "/>
   <polygon class="fil1" points="10411,14947 11543,14947 11543,15021 10411,15021 "/>
   <polygon class="fil1" points="10411,15068 11543,15068 11543,15142 10411,15142 "/>
   <polygon class="fil1" points="10411,15189 11543,15189 11543,15263 10411,15263 "/>
   <polygon class="fil1" points="10411,15310 11543,15310 11543,15384 10411,15384 "/>
   <polygon class="fil1" points="10411,15431 11543,15431 11543,15505 10411,15505 "/>
   <polygon class="fil1" points="9084,15552 11543,15552 11543,15626 9084,15626 "/>
   <polygon class="fil2" points="9084,15686 11543,15686 11543,15760 9084,15760 "/>
   <polygon class="fil3" points="9084,15838 11543,15838 11543,15912 9084,15912 "/>
   <polygon class="fil2" points="9105,14605 10327,14605 10327,15325 9105,15325 "/>
   <polygon class="fil0 str3" points="9105,15366 10327,15366 10327,15473 9105,15473 "/>
   <polygon class="fil3" points="9140,15401 10105,15401 10105,15438 9140,15438 "/>
   <polygon class="fil1" points="10145,15401 10182,15401 10182,15438 10145,15438 "/>
   <polygon class="fil1" points="10222,15401 10259,15401 10259,15438 10222,15438 "/>
   <polygon class="fil1 str2" points="8943,16461 11724,16461 11868,16721 8807,16721 "/>
   <polygon class="fil0 str2" points="6985,14249 8342,14249 8342,15243 6985,15243 "/>
   <polygon class="fil0 str2" points="6985,14249 8342,14249 8342,14506 6985,14506 "/>
   <path class="fil1" d="M7123 14340c19,0 34,16 34,35 0,19 -15,34 -34,34 -19,0 -34,-15 -34,-34 0,-19 15,-35 34,-35z"/>
   <path class="fil2" d="M7222 14340c19,0 34,16 34,35 0,19 -15,34 -34,34 -19,0 -34,-15 -34,-34 0,-19 15,-35 34,-35z"/>
   <path class="fil3" d="M7325 14340c19,0 34,16 34,35 0,19 -15,34 -34,34 -19,0 -35,-15 -35,-34 0,-19 16,-35 35,-35z"/>
   <path class="fil1" d="M7525 14677l112 0c9,0 16,7 16,16l0 0c0,9 -7,16 -16,16l-112 0c-9,0 -16,-7 -16,-16l0 0c0,-9 7,-16 16,-16z"/>
   <path class="fil2" d="M7470 14753l333 0c8,0 16,7 16,16l0 0c0,9 -8,16 -16,16l-333 0c-9,0 -16,-7 -16,-16l0 0c0,-9 7,-16 16,-16z"/>
   <path class="fil1" d="M7713 15083l458 0c9,0 16,7 16,16l0 0c0,9 -7,16 -16,16l-458 0c-9,0 -16,-7 -16,-16l0 0c0,-9 7,-16 16,-16z"/>
   <path class="fil3" d="M7151 14578l178 0c9,0 16,7 16,16l0 0c0,9 -7,16 -16,16l-178 0c-9,0 -17,-7 -17,-16l0 0c0,-9 8,-16 17,-16z"/>
   <path class="fil2" d="M7202 14677l267 0c9,0 16,7 16,16l0 0c0,9 -7,16 -16,16l-267 0c-9,0 -16,-7 -16,-16l0 0c0,-9 7,-16 16,-16z"/>
   <path class="fil3" d="M7692 14677l458 0c9,0 17,7 17,16l0 0c0,9 -8,16 -17,16l-458 0c-9,0 -16,-7 -16,-16l0 0c0,-9 7,-16 16,-16z"/>
   <path class="fil1" d="M7297 14760l113 0c9,0 16,8 16,16l0 0c0,9 -7,16 -16,16l-113 0c-8,0 -16,-7 -16,-16l0 0c0,-8 8,-16 16,-16z"/>
   <path class="fil1" d="M7870 14760l234 0c9,0 16,8 16,16l0 0c0,9 -7,16 -16,16l-234 0c-9,0 -16,-7 -16,-16l0 0c0,-8 7,-16 16,-16z"/>
   <path class="fil3" d="M7199 14841l267 0c9,0 16,7 16,16l0 0c0,9 -7,16 -16,16l-267 0c-9,0 -16,-7 -16,-16l0 0c0,-9 7,-16 16,-16z"/>
   <path class="fil1" d="M7559 14841l459 0c8,0 16,7 16,16l0 0c0,9 -8,16 -16,16l-459 0c-9,0 -16,-7 -16,-16l0 0c0,-9 7,-16 16,-16z"/>
   <path class="fil1" d="M7171 14984l178 0c9,0 16,7 16,16l0 0c0,9 -7,16 -16,16l-178 0c-9,0 -16,-7 -16,-16l0 0c0,-9 7,-16 16,-16z"/>
   <path class="fil2" d="M7222 15083l268 0c9,0 16,7 16,16l0 0c0,9 -7,16 -16,16l-268 0c-9,0 -16,-7 -16,-16l0 0c0,-9 7,-16 16,-16z"/>
   <path class="fil3" d="M7545 15083l113 0c9,0 16,8 16,16l0 0c0,9 -7,17 -16,17l-113 0c-9,0 -16,-8 -16,-17l0 0c0,-8 7,-16 16,-16z"/>
   <path class="fil1" d="M9917 13230l1327 0c14,0 25,11 25,25l0 0c0,14 -11,25 -25,25l-1327 0c-13,0 -25,-11 -25,-25l0 0c0,-14 12,-25 25,-25z"/>
   <path class="fil1" d="M9828 13372l1044 0c13,0 25,11 25,25l0 0c0,14 -12,25 -25,25l-1044 0c-14,0 -25,-11 -25,-25l0 0c0,-14 11,-25 25,-25z"/>
   <path class="fil4" d="M9710 14830c75,0 136,60 136,135 0,75 -61,135 -136,135 -74,0 -135,-60 -135,-135 0,-75 61,-135 135,-135z"/>
   <path class="fil1" d="M13065 13655l0 0c12,-12 31,-12 43,0l65 66 66 -66c12,-12 31,-12 43,0l0 0c11,12 11,31 0,42l-66 66 66 66c11,11 11,31 0,42l0 0c-12,12 -31,12 -43,0l-66 -65 -65 65c-12,12 -31,12 -43,0l0 0c-11,-11 -11,-31 0,-42l66 -66 -66 -66c-11,-11 -11,-30 0,-42z"/>
   <path class="fil1" d="M8352 15612l0 0c16,0 30,14 30,30l0 93 93 0c16,0 30,13 30,30l0 0c0,16 -14,30 -30,30l-93 0 0 93c0,16 -14,30 -30,30l0 0c-17,0 -30,-14 -30,-30l0 -93 -93 0c-17,0 -30,-14 -30,-30l0 0c0,-17 13,-30 30,-30l93 0 0 -93c0,-16 13,-30 30,-30z"/>
   <path class="fil2" d="M7566 12210l0 0c16,0 30,13 30,30l0 93 93 0c16,0 30,13 30,30l0 0c0,16 -14,30 -30,30l-93 0 0 93c0,16 -14,30 -30,30l0 0c-17,0 -30,-14 -30,-30l0 -93 -93 0c-17,0 -30,-14 -30,-30l0 0c0,-17 13,-30 30,-30l93 0 0 -93c0,-17 13,-30 30,-30z"/>
   <path class="fil0" d="M12415 16249l0 0c11,-12 30,-12 42,0l66 65 66 -65c11,-12 30,-12 42,0l0 0c12,11 12,30 0,42l-66 66 66 66c12,11 12,30 0,42l0 0c-12,12 -31,12 -42,0l-66 -66 -66 66c-12,12 -31,12 -42,0l0 0c-12,-12 -12,-31 0,-42l65 -66 -65 -66c-12,-12 -12,-31 0,-42z"/>
   <g>
    <path class="fil5" d="M13675 14496l-44 55 -5 -4 -24 -19 -26 -17 40 -59 27 20 27 20 5 4zm105 101l-51 48 -14 -15 -21 -22 -12 -12 48 -52 14 14 23 24 13 15zm88 119l-60 37 -3 -5 -16 -25 -17 -24 -1 -1 55 -44 3 3 19 27 17 27 3 5zm65 131l-65 27 -8 -22 -13 -26 -6 -14 62 -32 8 15 13 30 9 22zm42 141l-69 15 -2 -11 -7 -28 -7 -27 68 -20 8 29 7 31 2 11zm17 146l-71 4 -1 -29 -2 -30 -1 -9 70 -10 1 12 3 32 1 30zm-10 147l-70 -10 3 -14 3 -30 2 -23 70 4 -2 26 -3 33 -3 14zm-17 83l-68 -18 0 0 2 -8 69 15 -3 11 0 0zm-18 60l-67 -22 2 -7 6 -16 4 -16 5 -17 68 18 -5 18 -5 18 -6 18 -2 6zm-60 135l-62 -34 3 -6 8 -15 8 -15 7 -15 4 -9 65 28 -5 11 -8 16 -8 17 -9 16 -3 6zm-83 121l-55 -44 4 -5 11 -13 10 -13 10 -14 6 -9 58 39 -6 10 -11 15 -11 15 -12 15 -4 4zm-102 106l-47 -53 4 -4 13 -11 13 -12 12 -12 7 -7 51 48 -8 9 -14 13 -13 13 -14 12 -4 4zm-70 54l-40 -58 10 -8 42 57 -12 9zm109 106l-381 39 171 -342 210 303z"/>
   </g>
   <polygon class="fil1" points="9809,14965 9737,14923 9664,14881 9664,14965 9664,15049 9737,15007 "/>
   <g id="_2082745379792">
    <path class="fil2" d="M11202 13743l-400 160c-52,21 -112,-5 -132,-57l0 0c-21,-52 4,-112 56,-133l407 -162c-7,36 -3,75 12,112 12,32 32,59 57,80zm-431 33c14,-6 30,1 35,15 6,14 -1,30 -15,36 -14,6 -30,-1 -36,-15 -5,-14 2,-30 16,-36z"/>
    <path class="fil2" d="M11286 13385c98,-40 208,2 257,93l-176 15 -43 96 60 81 171 -20c-20,52 -61,95 -116,118 -106,42 -226,-10 -268,-115 -43,-106 9,-226 115,-268z"/>
   </g>
   <rect class="fil0 str2" x="11930" y="13041" width="967" height="967"/>
   <rect class="fil0 str2" x="11930" y="13041" width="967" height="153"/>
   <polyline class="fil0 str2" points="12057,13854 12292,13514 12517,13763 12784,13366 "/>
   <circle class="fil1" cx="12022" cy="13117" r="27"/>
   <circle class="fil2" cx="12091" cy="13117" r="27"/>
   <circle class="fil3" cx="12160" cy="13117" r="27"/>
   <circle class="fil3" cx="12292" cy="13514" r="51"/>
   <circle class="fil3" cx="12517" cy="13763" r="51"/>
   <circle class="fil3" cx="12784" cy="13366" r="51"/>
   <circle class="fil3" cx="12057" cy="13854" r="51"/>
   <path class="fil1" d="M12574 16603l0 0c14,-13 36,-13 49,0l84 84 84 -84c13,-13 35,-13 49,0l0 0c13,14 13,36 0,49l-84 84 84 84c13,13 13,35 0,49l0 0c-14,13 -36,13 -49,0l-84 -84 -84 84c-13,13 -35,13 -49,0l0 0c-13,-14 -13,-36 0,-49l84 -84 -84 -84c-13,-13 -13,-35 0,-49z"/>
   <g>
   </g>
   <g style="clip-path:url(#id0)">
    <g>
     <rect class="fil1" transform="matrix(0.274856 -0.0771812 0.0771812 0.274856 7344.38 15714)" width="923" height="85.47"/>
     <rect class="fil1" transform="matrix(0.440279 -0.123633 0.0771812 0.274856 7376.79 15829.4)" width="923" height="85.47"/>
     <rect class="fil1" transform="matrix(0.440279 -0.123633 0.0771812 0.274856 7393.77 15889.9)" width="923" height="85.47"/>
     <rect class="fil1" transform="matrix(0.440279 -0.123633 0.0771812 0.274856 7409.21 15944.9)" width="923" height="85.47"/>
     <rect class="fil1" transform="matrix(0.440279 -0.123633 0.0771812 0.274856 7426.19 16005.3)" width="923" height="85.47"/>
     <rect class="fil1" transform="matrix(0.440279 -0.123633 0.0771812 0.274856 7442.4 16063.1)" width="923" height="85.47"/>
     <rect class="fil1" transform="matrix(0.440279 -0.123633 0.0771812 0.274856 7459.38 16123.5)" width="923" height="85.47"/>
     <rect class="fil1" transform="matrix(0.389379 -0.10934 0.0771812 0.274856 7475.2 16179.9)" width="923" height="85.47"/>
     <rect class="fil1" transform="matrix(0.129793 -0.0364466 0.0771812 0.274856 7499.51 16266.5)" width="923" height="85.47"/>
     <polygon class="fil0 str2" points="7655,15527 7703,15679 7857,15641 "/>
    </g>
   </g>
   <polygon class="fil0 str4" points="7256,15639 7655,15527 7857,15641 8028,16251 7471,16408 "/>
   <g>
    <polygon class="fil0 str3" points="12235,14301 13190,14301 13190,15758 12235,15758 "/>
    <polygon class="fil0 str3" points="12340,14444 13084,14444 13084,15491 12340,15491 "/>
    <path class="fil1" d="M12712 15561c30,0 55,24 55,54 0,31 -25,55 -55,55 -30,0 -54,-24 -54,-55 0,-30 24,-54 54,-54z"/>
    <path class="fil0 str3" d="M12424 15028c48,-123 167,-204 300,-204 105,0 203,50 263,136"/>
    <path class="fil0 str3" d="M12481 15086c28,-112 128,-190 243,-190 93,0 179,52 222,135"/>
    <path class="fil0 str3" d="M12585 15094c22,-58 77,-96 139,-96 44,0 86,20 114,53"/>
    <path class="fil1" d="M12729 15073c32,0 58,26 58,58 0,32 -26,58 -58,58 -32,0 -58,-26 -58,-58 0,-32 26,-58 58,-58z"/>
   </g>
   <g>
    <path class="fil2" d="M10090 12648l1577 0 0 388 -1577 0 0 -388zm128 191l7 -22c16,6 28,11 35,15 -2,-18 -3,-31 -3,-38l22 0c0,10 -1,23 -3,38 10,-5 22,-10 36,-15l7 22c-13,4 -26,7 -38,9 6,5 15,15 26,29l-18 13c-6,-8 -13,-19 -21,-33 -8,14 -15,25 -20,33l-18 -13c12,-15 20,-25 25,-29 -13,-3 -25,-6 -37,-9zm122 0l7 -22c16,6 28,11 35,15 -2,-18 -3,-31 -3,-38l22 0c0,10 -1,23 -3,38 10,-5 22,-10 36,-15l7 22c-13,4 -26,7 -38,9 6,5 15,15 26,29l-18 13c-6,-8 -13,-19 -21,-33 -8,14 -14,25 -20,33l-18 -13c12,-15 20,-25 25,-29 -13,-3 -25,-6 -37,-9zm122 0l7 -22c16,6 28,11 35,15 -2,-18 -3,-31 -3,-38l22 0c0,10 -1,23 -3,38 10,-5 22,-10 36,-15l7 22c-13,4 -26,7 -38,9 6,5 15,15 26,29l-18 13c-6,-8 -13,-19 -21,-33 -8,14 -14,25 -20,33l-18 -13c12,-15 20,-25 25,-29 -13,-3 -25,-6 -37,-9zm122 0l7 -22c16,6 28,11 35,15 -2,-18 -3,-31 -3,-38l22 0c0,10 -1,23 -3,38 10,-5 22,-10 36,-15l7 22c-13,4 -26,7 -38,9 6,5 15,15 26,29l-18 13c-6,-8 -13,-19 -21,-33 -8,14 -14,25 -20,33l-18 -13c12,-15 20,-25 25,-29 -13,-3 -25,-6 -37,-9zm122 0l7 -22c16,6 28,11 35,15 -2,-18 -3,-31 -3,-38l23 0c-1,10 -2,23 -4,38 11,-5 23,-10 36,-15l7 22c-13,4 -25,7 -38,9 6,5 15,15 26,29l-18 13c-6,-8 -13,-19 -21,-33 -8,14 -14,25 -20,33l-18 -13c12,-15 20,-25 25,-29 -13,-3 -25,-6 -37,-9zm122 0l7 -22c16,6 28,11 35,15 -1,-18 -3,-31 -3,-38l23 0c-1,10 -2,23 -4,38 11,-5 23,-10 36,-15l7 22c-13,4 -25,7 -38,9 6,5 15,15 26,29l-18 13c-6,-8 -13,-19 -21,-33 -7,14 -14,25 -20,33l-18 -13c12,-15 20,-25 26,-29 -14,-3 -26,-6 -38,-9zm122 0l7 -22c16,6 28,11 36,15 -2,-18 -3,-31 -4,-38l23 0c-1,10 -2,23 -4,38 11,-5 23,-10 36,-15l7 22c-13,4 -25,7 -38,9 6,5 15,15 27,29l-19 13c-6,-8 -13,-19 -21,-33 -7,14 -14,25 -20,33l-18 -13c12,-15 21,-25 26,-29 -13,-3 -26,-6 -38,-9zm122 0l7 -22c17,6 28,11 36,15 -2,-18 -3,-31 -3,-38l22 0c0,10 -2,23 -4,38 11,-5 23,-10 36,-15l7 22c-13,4 -25,7 -38,9 7,5 15,15 27,29l-19 13c-6,-8 -13,-19 -21,-33 -7,14 -14,25 -20,33l-18 -13c12,-15 21,-25 26,-29 -13,-3 -26,-6 -38,-9zm122 0l7 -22c17,6 28,11 36,15 -2,-18 -3,-31 -3,-38l22 0c0,10 -2,23 -4,38 11,-5 23,-10 36,-15l7 22c-12,4 -25,7 -38,9 7,5 15,15 27,29l-19 13c-5,-8 -13,-19 -21,-33 -7,14 -14,25 -19,33l-18 -13c11,-15 20,-25 25,-29 -13,-3 -26,-6 -38,-9zm123 0l7 -22c16,6 27,11 35,15 -2,-18 -3,-31 -3,-38l22 0c0,10 -1,23 -4,38 11,-5 23,-10 37,-15l7 22c-13,4 -26,7 -38,9 6,5 15,15 26,29l-18 13c-6,-8 -13,-19 -21,-33 -8,14 -15,25 -20,33l-18 -13c11,-15 20,-25 25,-29 -13,-3 -26,-6 -37,-9zm122 0l7 -22c16,6 28,11 35,15 -2,-18 -3,-31 -3,-38l22 0c0,10 -1,23 -3,38 10,-5 22,-10 36,-15l7 22c-13,4 -26,7 -38,9 6,5 15,15 26,29l-18 13c-6,-8 -13,-19 -21,-33 -8,14 -15,25 -20,33l-18 -13c11,-15 20,-25 25,-29 -13,-3 -26,-6 -37,-9z"/>
    <path class="fil1" d="M9585 12660l406 0 0 370 -406 0 0 -370zm205 91c19,0 35,15 35,34 0,14 -8,25 -20,31l10 105 -49 1 8 -107c-11,-6 -18,-17 -18,-30 0,-19 15,-34 34,-34z"/>
    <path class="fil0 str3" d="M9788 12461l0 0c91,0 166,75 166,166l0 209c0,92 -75,166 -166,166l0 0c-92,0 -166,-74 -166,-166l0 -209c0,-91 74,-166 166,-166z"/>
   </g>
   <g>
    <polygon class="fil1" points="8554,12270 9881,12270 9881,12317 8554,12317 "/>
    <polygon class="fil1" points="8141,12384 9468,12384 9468,12431 8141,12431 "/>
    <polygon class="fil1" points="8554,12270 9603,12270 9603,12317 8554,12317 "/>
    <polygon class="fil1" points="8141,12384 9468,12384 9468,12431 8141,12431 "/>
    <polygon class="fil1" points="7846,12270 8320,12270 8320,12317 7846,12317 "/>
    <polygon class="fil1" points="8102,12144 8765,12144 8765,12191 8102,12191 "/>
    <polygon class="fil1" points="8912,12144 9429,12144 9429,12191 8912,12191 "/>
   </g>
   <g>
    <polygon class="fil1" points="12983,16286 14015,16286 14015,16333 12983,16333 "/>
    <polygon class="fil1" points="12662,16400 13694,16400 13694,16447 12662,16447 "/>
    <polygon class="fil1" points="12983,16286 13799,16286 13799,16333 12983,16333 "/>
    <polygon class="fil1" points="12662,16400 13694,16400 13694,16447 12662,16447 "/>
    <polygon class="fil1" points="12432,16286 12801,16286 12801,16333 12432,16333 "/>
    <polygon class="fil1" points="12631,16160 13147,16160 13147,16207 12631,16207 "/>
    <polygon class="fil1" points="13261,16160 13663,16160 13663,16207 13261,16207 "/>
   </g>
   <g>
    <polygon class="fil1" points="7945,17395 8977,17395 8977,17442 7945,17442 "/>
    <polygon class="fil1" points="7624,17509 8656,17509 8656,17556 7624,17556 "/>
    <polygon class="fil1" points="7945,17395 8761,17395 8761,17442 7945,17442 "/>
    <polygon class="fil1" points="7624,17509 8656,17509 8656,17556 7624,17556 "/>
    <polygon class="fil1" points="7394,17395 7763,17395 7763,17442 7394,17442 "/>
    <polygon class="fil1" points="7593,17269 8109,17269 8109,17316 7593,17316 "/>
    <polygon class="fil1" points="8223,17269 8625,17269 8625,17316 8223,17316 "/>
   </g>
  </g>
 </g>
</svg>
