<?xml version="1.0" encoding="UTF-8"?>
<!DOCTYPE svg PUBLIC "-//W3C//DTD SVG 1.1//EN" "http://www.w3.org/Graphics/SVG/1.1/DTD/svg11.dtd">
<!-- Creator: CorelDRAW X7 -->
<svg xmlns="http://www.w3.org/2000/svg" xml:space="preserve" width="210mm" height="297mm" version="1.1" style="shape-rendering:geometricPrecision; text-rendering:geometricPrecision; image-rendering:optimizeQuality; fill-rule:evenodd; clip-rule:evenodd"
viewBox="0 0 21000 29700"
 xmlns:xlink="http://www.w3.org/1999/xlink">
 <defs>
  <style type="text/css">
   <![CDATA[
    .str0 {stroke:#1F3A44;stroke-width:52.92}
    .fil1 {fill:none}
    .fil2 {fill:#15AAB0}
    .fil0 {fill:#1F3A44}
    .fil5 {fill:#2CAFCA}
    .fil3 {fill:#E6E6E6}
    .fil6 {fill:#E6E6E6}
    .fil4 {fill:#FF56F1}
   ]]>
  </style>
    <clipPath id="id0">
     <path d="M14479 3066l16 235 1704 -285 -32 -232 -1688 282z"/>
    </clipPath>
    <clipPath id="id1">
     <path d="M14495 3301l1721 0 0 193 -1721 0 0 -193z"/>
    </clipPath>
 </defs>
 <g id="Layer_x0020_1">
  <metadata id="CorelCorpID_0Corel-Layer"/>
  <rect class="fil0" transform="matrix(-0.543966 -0.423596 -0.202835 0.260473 9748.86 3848.79)" width="162" height="2414" rx="81" ry="81"/>
  <rect class="fil1 str0" x="11004" y="1937" width="3241" height="2298" rx="130" ry="130"/>
  <rect class="fil1 str0" x="11113" y="2054" width="3023" height="2062" rx="47" ry="47"/>
  <rect class="fil1 str0" x="11225" y="2128" width="2799" height="1838"/>
  <rect class="fil1 str0" x="11411" y="2452" width="2428" height="1367"/>
  <rect class="fil2 str0" x="11411" y="2452" width="2428" height="1102"/>
  <rect class="fil1 str0" x="11225" y="2128" width="2799" height="242"/>
  <path class="fil2 str0" d="M14396 1835l946 0c37,0 68,30 68,68l0 542c0,37 -31,68 -68,68l-436 0 -194 147 64 -147 -380 0c-37,0 -67,-31 -67,-68l0 -542c0,-38 30,-68 67,-68z"/>
  <path class="fil3 str0" d="M15849 1685l-946 0c-37,0 -68,30 -68,67l0 543c0,37 31,67 68,67l436 0 195 148 -65 -148 380 0c37,0 68,-30 68,-67l0 -543c0,-37 -31,-67 -68,-67z"/>
  <rect class="fil0" x="14986" y="1926" width="786.607" height="29.4599"/>
  <rect class="fil0" x="14986" y="2078" width="786.607" height="29.4599"/>
  <path class="fil1 str0" d="M14495 3301l112 0 1497 0 112 0 0 112 0 878 0 229c0,62 -51,112 -112,112l-1497 0c-62,0 -112,-50 -112,-112l0 -229 0 -878 0 -112z"/>
  <rect class="fil1 str0" x="14700" y="3667" width="1311" height="628"/>
  <rect class="fil0" x="14859" y="3815" width="989.889" height="23.5652"/>
  <rect class="fil0" x="14859" y="3980" width="989.889" height="23.5652"/>
  <rect class="fil0" x="14859" y="4146" width="989.889" height="23.5652"/>
  <rect class="fil0 str0" x="12022" y="4531" width="1252" height="144"/>
  <polygon class="fil4 str0" points="12390,4235 12897,4235 12944,4531 12334,4531 "/>
  <path class="fil1 str0" d="M11156 4342l377 0 68 0 0 68 0 165 0 29c0,38 -31,68 -68,68l-377 0c-38,0 -68,-30 -68,-68l0 -29 0 -165 0 -68 68 0z"/>
  <path class="fil1 str0" d="M11597 4381l76 0c20,0 36,16 36,35l0 143c0,20 -16,36 -36,36l-76 0"/>
  <rect class="fil2 str0" x="12252" y="1325" width="334" height="139"/>
  <circle class="fil3 str0" cx="12098" cy="1392" r="276"/>
  <rect class="fil0 str0" x="12506" y="1287" width="790" height="209" rx="105" ry="105"/>
  <rect class="fil0 str0" x="8641" y="2108" width="159" height="651"/>
  <rect class="fil5 str0" x="8800" y="2173" width="197" height="524"/>
  <rect class="fil1 str0" x="8997" y="2273" width="242" height="345"/>
  <rect class="fil1 str0" x="9248" y="2096" width="1211" height="766"/>
  <rect class="fil4 str0" x="9321" y="2211" width="333" height="380"/>
  <rect class="fil0 str0" x="9746" y="2190" width="633" height="410"/>
  <rect class="fil0" transform="matrix(0.543966 -0.423596 0.202835 0.260473 9595.06 3845.84)" width="162" height="2414" rx="81" ry="81"/>
  <rect class="fil2 str0" x="9410" y="2862" width="521" height="100"/>
  <rect class="fil0" x="9616" y="2885" width="112" height="1760" rx="56" ry="59"/>
  <circle class="fil4" cx="9672" cy="2943" r="55"/>
  <rect class="fil4 str0" x="9579" y="3306" width="186" height="261" rx="57" ry="57"/>
  <circle class="fil4" cx="9672" cy="3865" r="55"/>
  <g id="_1641846344208">
   <polygon class="fil0" points="14479,3066 14495,3301 16199,3016 16167,2784 "/>
   <g style="clip-path:url(#id0)">
    <g>
     <g>
      <rect class="fil6" transform="matrix(0.866025 0.5 0.5 -0.866025 12045 3212.24)" width="137" height="3419"/>
      <rect class="fil6" transform="matrix(0.866025 0.5 0.5 -0.866025 12314.9 3368.09)" width="137" height="3419"/>
      <rect class="fil6" transform="matrix(0.866025 0.5 0.5 -0.866025 12584.9 3523.93)" width="137" height="3419"/>
      <rect class="fil6" transform="matrix(0.866025 0.5 0.5 -0.866025 12854.8 3679.78)" width="137" height="3419"/>
      <rect class="fil6" transform="matrix(0.866025 0.5 0.5 -0.866025 13124.7 3835.62)" width="137" height="3419"/>
      <rect class="fil6" transform="matrix(0.866025 0.5 0.5 -0.866025 13394.7 3991.46)" width="137" height="3419"/>
      <rect class="fil6" transform="matrix(0.866025 0.5 0.5 -0.866025 13664.6 4147.31)" width="137" height="3419"/>
      <rect class="fil6" transform="matrix(0.866025 0.5 0.5 -0.866025 13934.5 4303.15)" width="137" height="3419"/>
      <rect class="fil6" transform="matrix(0.866025 0.5 0.5 -0.866025 14204.5 4459)" width="137" height="3419"/>
      <rect class="fil6" transform="matrix(0.866025 0.5 0.5 -0.866025 14474.4 4614.84)" width="137" height="3419"/>
      <rect class="fil6" transform="matrix(0.866025 0.5 0.5 -0.866025 14744.3 4770.69)" width="137" height="3419"/>
      <rect class="fil6" transform="matrix(0.866025 0.5 0.5 -0.866025 15014.3 4926.53)" width="137" height="3419"/>
      <rect class="fil6" transform="matrix(0.866025 0.5 0.5 -0.866025 15284.2 5082.38)" width="137" height="3419"/>
      <rect class="fil6" transform="matrix(0.866025 0.5 0.5 -0.866025 15554.1 5238.22)" width="137" height="3419"/>
      <rect class="fil6" transform="matrix(0.866025 0.5 0.5 -0.866025 15824 5394.06)" width="137" height="3419"/>
      <rect class="fil6" transform="matrix(0.866025 0.5 0.5 -0.866025 16094 5549.91)" width="137" height="3419"/>
      <rect class="fil6" transform="matrix(0.866025 0.5 0.5 -0.866025 16363.9 5705.75)" width="137" height="3419"/>
      <rect class="fil6" transform="matrix(0.866025 0.5 0.5 -0.866025 16633.8 5861.6)" width="137" height="3419"/>
     </g>
    </g>
   </g>
   <polygon class="fil1 str0" points="14479,3066 14495,3301 16199,3016 16167,2784 "/>
   <polygon class="fil0" points="14495,3301 16216,3301 16216,3494 14495,3494 "/>
   <g style="clip-path:url(#id1)">
    <g>
     <g>
      <rect class="fil6" transform="matrix(0.866025 0.5 0.5 -0.866025 12045 3212.24)" width="137" height="3419"/>
      <rect class="fil6" transform="matrix(0.866025 0.5 0.5 -0.866025 12314.9 3368.09)" width="137" height="3419"/>
      <rect class="fil6" transform="matrix(0.866025 0.5 0.5 -0.866025 12584.9 3523.93)" width="137" height="3419"/>
      <rect class="fil6" transform="matrix(0.866025 0.5 0.5 -0.866025 12854.8 3679.78)" width="137" height="3419"/>
      <rect class="fil6" transform="matrix(0.866025 0.5 0.5 -0.866025 13124.7 3835.62)" width="137" height="3419"/>
      <rect class="fil6" transform="matrix(0.866025 0.5 0.5 -0.866025 13394.7 3991.46)" width="137" height="3419"/>
      <rect class="fil6" transform="matrix(0.866025 0.5 0.5 -0.866025 13664.6 4147.31)" width="137" height="3419"/>
      <rect class="fil6" transform="matrix(0.866025 0.5 0.5 -0.866025 13934.5 4303.15)" width="137" height="3419"/>
      <rect class="fil6" transform="matrix(0.866025 0.5 0.5 -0.866025 14204.5 4459)" width="137" height="3419"/>
      <rect class="fil6" transform="matrix(0.866025 0.5 0.5 -0.866025 14474.4 4614.84)" width="137" height="3419"/>
      <rect class="fil6" transform="matrix(0.866025 0.5 0.5 -0.866025 14744.3 4770.69)" width="137" height="3419"/>
      <rect class="fil6" transform="matrix(0.866025 0.5 0.5 -0.866025 15014.3 4926.53)" width="137" height="3419"/>
      <rect class="fil6" transform="matrix(0.866025 0.5 0.5 -0.866025 15284.2 5082.38)" width="137" height="3419"/>
      <rect class="fil6" transform="matrix(0.866025 0.5 0.5 -0.866025 15554.1 5238.22)" width="137" height="3419"/>
      <rect class="fil6" transform="matrix(0.866025 0.5 0.5 -0.866025 15824 5394.06)" width="137" height="3419"/>
      <rect class="fil6" transform="matrix(0.866025 0.5 0.5 -0.866025 16094 5549.91)" width="137" height="3419"/>
      <rect class="fil6" transform="matrix(0.866025 0.5 0.5 -0.866025 16363.9 5705.75)" width="137" height="3419"/>
      <rect class="fil6" transform="matrix(0.866025 0.5 0.5 -0.866025 16633.8 5861.6)" width="137" height="3419"/>
     </g>
    </g>
   </g>
   <polygon class="fil1 str0" points="14495,3301 16216,3301 16216,3494 14495,3494 "/>
  </g>
  <g id="_1641846344720">
   <rect class="fil3 str0" x="9821" y="3223" width="1002" height="1426" rx="59" ry="59"/>
   <rect class="fil5 str0" x="9912" y="3347" width="819" height="1161"/>
  </g>
  <path class="fil0" d="M12659 2718c169,0 305,137 305,305 0,169 -136,305 -305,305 -168,0 -305,-136 -305,-305 0,-168 137,-305 305,-305zm164 301l-129 -74 -129 -74 0 148 0 148 129 -74 129 -74z"/>
  <polygon class="fil0" points="14613,1151 15783,1151 15783,1212 14613,1212 "/>
  <polygon class="fil0" points="14249,1298 15419,1298 15419,1359 14249,1359 "/>
  <polygon class="fil0" points="14613,1151 15538,1151 15538,1212 14613,1212 "/>
  <polygon class="fil0" points="14249,1298 15419,1298 15419,1359 14249,1359 "/>
  <polygon class="fil0" points="13989,1151 14407,1151 14407,1212 13989,1212 "/>
  <path class="fil0" d="M10058 1452l1192 0c12,0 22,-10 22,-22l0 0c0,-13 -10,-23 -22,-23l-1192 0c-13,0 -23,10 -23,23l0 0c0,12 10,22 23,22z"/>
  <path class="fil0" d="M9978 1324l937 0c12,0 23,-10 23,-22l0 0c0,-13 -11,-23 -23,-23l-937 0c-13,0 -23,10 -23,23l0 0c0,12 10,22 23,22z"/>
  <path class="fil0" d="M9877 1653l0 0c8,-8 21,-8 28,0l44 44 44 -44c7,-8 20,-8 28,0l0 0c8,8 8,21 0,28l-44 44 44 44c8,7 8,20 0,28l0 0c-8,8 -21,8 -28,0l-44 -44 -44 44c-7,8 -20,8 -28,0l0 0c-8,-8 -8,-21 0,-28l44 -44 -44 -44c-8,-7 -8,-20 0,-28z"/>
  <polygon class="fil0" points="10612,5344 11782,5344 11782,5283 10612,5283 "/>
  <polygon class="fil0" points="10249,5197 11418,5197 11418,5137 10249,5137 "/>
  <polygon class="fil0" points="10612,5344 11538,5344 11538,5283 10612,5283 "/>
  <polygon class="fil0" points="10249,5197 11418,5197 11418,5137 10249,5137 "/>
  <polygon class="fil0" points="9989,5344 10406,5344 10406,5283 9989,5283 "/>
  <path class="fil0" d="M14508 5282l0 0c8,-7 20,-7 28,0l44 44 43 -44c8,-7 21,-7 29,0l0 0c7,8 7,21 0,29l-44 43 44 44c7,8 7,20 0,28l0 0c-8,8 -21,8 -29,0l-43 -44 -44 44c-8,8 -20,8 -28,0l0 0c-8,-8 -8,-20 0,-28l44 -44 -44 -43c-8,-8 -8,-21 0,-29z"/>
  <path class="fil0" d="M9173 4785l0 0c8,-7 20,-7 28,0l44 44 43 -44c8,-7 21,-7 29,0l0 0c7,8 7,21 0,29l-44 43 44 44c7,8 7,20 0,28l0 0c-8,8 -21,8 -29,0l-43 -44 -44 44c-8,8 -20,8 -28,0l0 0c-8,-8 -8,-20 0,-28l43 -44 -43 -43c-8,-8 -8,-21 0,-29z"/>
  <path class="fil0" d="M13661 749l0 0c11,0 20,9 20,20l0 61 61 0c11,0 20,9 20,20l0 0c0,11 -9,20 -20,20l-61 0 0 62c0,11 -9,20 -20,20l0 0c-11,0 -20,-9 -20,-20l0 -62 -62 0c-11,0 -20,-9 -20,-20l0 0c0,-11 9,-20 20,-20l62 0 0 -61c0,-11 9,-20 20,-20z"/>
 </g>
</svg>
