<?xml version="1.0" standalone="no"?>
<!DOCTYPE svg PUBLIC "-//W3C//DTD SVG 20010904//EN"
 "http://www.w3.org/TR/2001/REC-SVG-20010904/DTD/svg10.dtd">
<svg version="1.0" xmlns="http://www.w3.org/2000/svg"
 width="1280.000000pt" height="528.000000pt" viewBox="0 0 1280.000000 528.000000"
 preserveAspectRatio="xMidYMid meet">

<g transform="translate(0.000000,528.000000) scale(0.100000,-0.100000)"
fill="#000000" stroke="none">
<path d="M0 2640 l0 -2640 6400 0 6400 0 0 2640 0 2640 -6400 0 -6400 0 0
-2640z m8645 2591 c-94 -43 -129 -125 -106 -255 14 -83 41 -154 134 -351 81
-172 87 -202 76 -430 -8 -160 -33 -264 -98 -400 -126 -264 -253 -401 -413
-445 -29 -8 -83 -11 -141 -8 -77 3 -103 9 -151 32 -71 35 -142 121 -183 221
-27 67 -28 76 -27 230 0 139 3 168 23 224 59 168 150 307 271 412 40 35 161
88 209 91 l45 3 49 -85 c28 -47 65 -108 83 -137 39 -60 66 -155 68 -238 1 -49
-2 -60 -16 -63 -15 -3 -18 4 -18 43 0 60 -25 112 -64 136 -17 11 -62 29 -99
40 -59 19 -76 20 -122 11 -145 -29 -232 -153 -223 -320 3 -60 10 -90 33 -137
35 -70 72 -98 152 -116 137 -31 323 64 396 203 32 61 51 174 43 253 -13 124
-52 218 -193 466 -63 110 -87 162 -98 214 -24 118 6 205 105 303 80 79 166
119 260 121 l45 1 -40 -19z m-5748 -186 c445 -64 935 -294 1283 -603 96 -85
108 -98 201 -203 91 -103 259 -333 259 -355 0 -3 8 -18 19 -32 29 -41 93 -167
139 -273 43 -99 95 -249 89 -255 -2 -2 -43 57 -92 132 -111 171 -190 270 -330
410 -173 175 -306 279 -505 395 -560 327 -1253 418 -1880 247 -617 -168 -1172
-606 -1486 -1173 -210 -377 -309 -758 -308 -1180 1 -248 21 -400 81 -609 12
-43 -20 0 -54 72 -153 327 -238 773 -214 1130 10 154 47 387 77 486 126 417
251 659 488 946 149 181 268 291 451 415 55 38 119 83 143 101 89 67 360 193
546 253 148 48 363 91 561 111 117 12 403 4 532 -15z m3069 -497 c44 -23 114
-92 103 -101 -2 -2 -74 -46 -159 -97 -85 -51 -167 -101 -182 -112 -26 -18 -27
-18 -64 7 -108 73 -272 -20 -370 -210 -57 -110 -77 -177 -78 -260 -2 -121 32
-160 149 -172 68 -7 123 18 199 90 115 110 212 365 174 457 l-15 35 66 36 c36
20 118 65 181 102 63 36 116 65 117 63 2 -2 -23 -88 -56 -192 -32 -104 -109
-353 -171 -554 -179 -583 -190 -612 -280 -737 -99 -139 -264 -231 -442 -248
-123 -12 -287 16 -343 57 -138 103 -160 134 -160 228 0 75 21 118 92 187 51
51 81 67 151 82 74 15 132 14 210 -6 61 -15 72 -22 139 -91 40 -40 73 -80 73
-87 0 -26 -22 -27 -48 -2 -58 55 -198 75 -259 38 -42 -26 -62 -109 -41 -173
21 -61 55 -83 131 -83 125 0 197 40 271 152 28 41 200 504 222 593 l13 55 -41
-45 c-23 -25 -58 -68 -80 -96 -39 -52 -127 -120 -185 -143 -20 -8 -60 -12
-105 -9 -58 3 -82 9 -116 32 -29 18 -42 32 -38 42 3 8 2 13 -3 9 -5 -3 -18 7
-29 22 -111 160 -30 539 172 808 121 160 270 268 461 332 60 20 85 23 181 20
96 -3 117 -7 160 -29z m1409 5 c55 2 110 9 123 16 12 6 22 10 22 7 0 -2 -14
-37 -31 -77 -36 -83 -234 -679 -250 -748 -5 -24 -7 -57 -4 -73 6 -23 12 -28
37 -28 38 0 76 39 111 114 19 40 31 54 44 51 23 -4 22 -9 -43 -145 -83 -175
-141 -252 -219 -293 -48 -25 -128 -26 -174 -3 -55 29 -66 58 -66 171 0 55 3
116 7 135 l8 35 -25 -30 c-14 -16 -43 -59 -65 -95 -66 -107 -123 -173 -185
-210 -50 -29 -70 -35 -129 -38 -97 -5 -137 13 -166 74 -19 39 -22 56 -17 117
7 86 56 260 132 468 69 189 72 239 14 254 -35 9 -68 -21 -108 -94 -21 -40 -38
-61 -50 -61 -17 0 -17 4 5 64 66 183 167 337 248 378 57 29 165 30 203 2 46
-35 66 -70 71 -127 5 -66 -12 -134 -88 -347 -69 -193 -103 -317 -98 -361 4
-45 45 -74 92 -65 62 12 128 74 176 166 52 101 117 291 166 486 36 143 37 165
19 250 l-7 31 74 -14 c45 -9 110 -13 173 -10z m2502 2 c61 -19 93 -35 120 -61
21 -20 32 -39 27 -44 -5 -5 -102 -56 -215 -114 l-205 -105 -45 15 c-80 28
-152 7 -232 -68 -126 -120 -184 -316 -127 -433 33 -69 68 -87 155 -82 92 5
157 45 209 127 68 106 117 322 87 378 -11 21 -4 26 180 117 106 52 194 93 196
91 2 -2 -1 -16 -8 -32 -43 -112 -180 -527 -190 -575 -10 -51 -9 -62 5 -84 25
-38 57 -32 102 18 21 23 42 41 47 39 5 -1 6 2 2 8 -7 12 31 70 46 70 15 0 4
-28 -62 -168 -107 -226 -182 -303 -303 -310 -74 -4 -114 17 -141 74 -15 31
-17 54 -12 132 3 52 2 91 -2 86 -4 -5 -29 -40 -55 -78 -132 -188 -245 -246
-386 -200 -71 23 -116 68 -142 139 -33 96 -35 182 -4 307 44 185 87 271 224
451 87 113 177 190 291 244 185 88 292 102 438 58z m892 -1 c51 -43 61 -124
32 -271 -5 -24 -7 -43 -6 -43 1 0 36 48 78 108 129 181 197 232 314 232 68 0
138 -32 165 -75 16 -25 19 -43 14 -105 -6 -93 -27 -163 -124 -405 -100 -251
-108 -324 -35 -325 31 0 68 37 100 102 20 39 33 54 41 49 22 -13 -123 -320
-180 -381 -61 -66 -93 -82 -171 -83 -55 -2 -79 2 -100 16 -40 26 -67 76 -67
124 0 68 96 369 165 518 24 54 65 187 65 214 -1 73 -91 104 -161 57 -57 -39
-145 -163 -193 -272 -80 -181 -115 -269 -153 -380 -31 -92 -37 -123 -37 -197
l-1 -87 -30 7 c-37 10 -288 10 -331 1 l-32 -7 49 81 c26 45 58 107 70 137 12
31 33 79 45 106 12 28 39 93 59 145 20 52 59 151 86 219 36 92 49 137 49 175
0 60 -12 76 -56 76 -38 0 -65 -28 -109 -113 -47 -90 -64 -70 -22 25 64 144
179 300 256 350 39 24 55 28 117 28 63 0 76 -3 103 -26z m1770 9 c50 -16 141
-87 141 -110 0 -5 -12 -16 -27 -24 -16 -8 -70 -40 -121 -72 -51 -32 -101 -61
-110 -64 -9 -4 -38 -22 -64 -40 l-47 -33 -37 25 c-132 89 -331 -66 -425 -331
-29 -82 -30 -214 -2 -252 26 -36 58 -50 125 -58 47 -5 64 -3 102 15 68 33 156
125 198 206 54 105 92 236 84 288 -4 23 -8 50 -9 60 -1 13 17 29 63 54 36 20
114 64 174 100 60 35 111 62 113 59 2 -2 -46 -165 -107 -362 -62 -198 -132
-424 -157 -504 -141 -455 -170 -528 -264 -648 -125 -159 -365 -245 -593 -213
-92 13 -151 37 -221 90 -79 59 -108 109 -109 184 -1 73 16 114 77 179 54 57
83 75 154 93 70 18 140 19 215 1 65 -16 97 -36 155 -99 50 -54 65 -81 57 -102
-6 -14 -11 -12 -38 14 -60 57 -185 79 -256 43 -32 -15 -36 -23 -47 -79 -18
-89 -3 -130 57 -161 37 -19 55 -22 102 -18 119 12 205 74 262 190 32 65 184
485 200 553 16 65 6 61 -53 -17 -84 -113 -151 -173 -225 -204 -45 -19 -146
-20 -194 -2 -41 14 -105 77 -127 123 -84 177 3 529 191 779 124 163 261 262
456 329 90 30 227 34 307 8z m-9729 -141 c22 -8 18 -10 -35 -17 -155 -18 -369
-72 -500 -125 -392 -159 -675 -368 -950 -701 -42 -51 -114 -158 -167 -249
-153 -261 -259 -585 -289 -885 -14 -139 -6 -393 16 -554 45 -316 184 -660 377
-929 77 -108 240 -298 289 -338 20 -16 72 -60 115 -98 150 -131 403 -280 623
-368 145 -57 330 -107 404 -109 29 -1 66 -5 82 -10 50 -14 -402 -1 -505 14
-384 58 -783 240 -1077 490 -192 163 -361 361 -476 557 -197 338 -281 603
-307 975 -23 331 35 690 162 993 59 141 181 357 263 467 207 275 490 514 780
659 275 138 493 195 910 240 65 7 258 -1 285 -12z m990 -134 c49 -17 113 -62
143 -101 37 -49 51 -89 107 -300 67 -257 103 -392 217 -812 13 -49 51 -191 83
-315 131 -496 159 -599 241 -900 67 -247 60 -324 -42 -435 -52 -56 -95 -73
-360 -143 -323 -85 -662 -176 -909 -242 -118 -32 -267 -72 -330 -89 -63 -16
-176 -46 -250 -66 -297 -80 -324 -86 -391 -86 -88 0 -154 28 -212 90 -24 26
-51 67 -60 91 -17 50 -97 344 -97 360 0 7 136 10 404 10 l405 0 28 24 28 24 0
952 0 952 -33 29 -32 29 -431 0 c-466 0 -472 -1 -497 -55 -9 -19 -12 -205 -12
-727 0 -386 -2 -699 -5 -696 -3 3 -15 40 -26 84 -12 43 -31 117 -44 164 -39
148 -153 577 -210 790 -30 113 -71 264 -90 337 -48 181 -53 233 -25 306 25 66
94 145 150 169 50 23 86 33 490 138 69 18 179 47 245 65 66 18 201 54 300 80
99 26 293 78 430 115 491 132 566 151 577 144 6 -4 8 -3 4 4 -13 21 150 29
204 10z m7025 -1082 c105 -28 198 -96 234 -169 32 -66 29 -151 -8 -209 -74
-117 -210 -140 -318 -52 -47 39 -80 87 -89 133 l-6 31 42 -15 c55 -19 100 -19
128 1 34 24 44 59 28 97 -19 45 -48 68 -93 74 -73 10 -139 -42 -196 -152 -20
-40 -116 -302 -249 -680 -33 -93 -78 -219 -100 -280 -29 -80 -41 -127 -42
-172 -1 -58 1 -64 33 -97 44 -45 105 -61 188 -47 76 12 105 27 164 83 97 94
172 283 148 374 -38 140 -252 149 -327 15 -13 -23 -27 -41 -33 -41 -13 0 -13
-1 40 138 26 70 62 163 78 207 27 72 33 80 64 88 18 5 79 7 134 5 93 -3 106
-6 151 -33 97 -61 143 -213 115 -381 -16 -94 -67 -256 -103 -329 -49 -97 -133
-217 -209 -299 -57 -61 -87 -84 -155 -118 -79 -39 -91 -42 -188 -46 -118 -5
-197 14 -281 70 -127 84 -143 219 -60 521 35 129 58 193 178 507 38 102 91
242 117 312 26 69 58 146 73 170 46 78 87 129 99 122 6 -4 8 -3 5 3 -8 13 55
72 118 108 123 73 213 90 320 61z m-4527 -61 c90 -21 158 -59 222 -124 86 -86
139 -210 140 -327 0 -76 -26 -169 -195 -684 -124 -379 -225 -696 -225 -707 0
-6 55 -12 148 -16 159 -5 248 -21 356 -62 101 -38 148 -69 212 -138 116 -125
150 -269 100 -420 -14 -44 -38 -102 -53 -130 -36 -65 -135 -147 -222 -184 -58
-24 -79 -27 -171 -27 -76 -1 -119 4 -158 17 -61 22 -148 17 -302 -15 -52 -11
-115 -24 -140 -28 -25 -4 -78 -15 -118 -24 -92 -20 -249 -21 -344 -1 -121 26
-253 117 -333 230 -60 85 -94 157 -111 234 -30 142 -15 220 107 571 39 113
117 340 174 505 145 420 201 581 225 645 12 30 25 66 30 80 17 53 132 335 156
383 51 99 175 191 300 221 77 19 125 19 202 1z m-5128 -456 c-14 -92 -12 -367
5 -486 40 -280 134 -534 282 -763 175 -269 424 -516 656 -652 338 -197 646
-278 1062 -278 204 0 453 41 600 100 11 4 47 19 80 31 33 13 109 49 170 79
319 161 563 376 758 668 77 116 95 149 158 292 18 41 39 84 47 95 13 18 13 16
7 -20 -51 -310 -212 -664 -415 -911 -258 -314 -544 -512 -915 -632 -181 -58
-264 -76 -450 -94 -366 -36 -762 42 -1084 213 -109 58 -276 168 -371 244 -87
70 -202 193 -194 207 4 6 3 8 -3 5 -12 -7 -114 114 -175 208 -172 267 -280
544 -317 818 -18 129 -14 394 9 547 17 118 73 370 87 393 12 19 13 -5 3 -64z
m10825 -144 c81 -21 162 -62 182 -91 9 -14 14 -26 12 -28 -2 -2 -78 -41 -169
-86 -91 -46 -186 -94 -212 -107 -45 -23 -48 -24 -93 -9 -61 21 -81 20 -141 -8
-50 -23 -126 -94 -170 -159 -84 -124 -85 -322 -2 -392 25 -21 40 -25 96 -25
85 0 135 23 189 84 90 102 157 324 125 415 l-11 31 192 94 c106 52 193 93 194
92 1 -1 -40 -123 -91 -272 -104 -298 -125 -381 -108 -419 8 -18 20 -25 40 -25
34 0 59 22 112 100 42 61 67 79 55 38 -21 -69 -159 -328 -195 -366 -99 -103
-216 -126 -288 -56 l-37 36 0 113 0 113 -45 -62 c-158 -218 -262 -272 -415
-215 -128 48 -182 205 -139 409 17 85 57 206 87 265 44 88 146 225 232 311 74
74 107 99 185 139 176 90 289 112 415 80z m-4446 -29 c65 -45 139 -143 160
-211 56 -181 23 -412 -90 -623 -68 -128 -199 -276 -283 -319 -96 -49 -238 -59
-356 -26 -99 27 -217 175 -255 319 -17 65 -21 238 -7 294 37 146 165 353 267
430 11 8 39 30 62 48 53 42 155 89 216 101 l48 9 -58 -52 c-32 -28 -75 -68
-96 -90 -36 -37 -97 -119 -97 -130 0 -4 -9 -25 -20 -49 -49 -106 -73 -287 -50
-374 28 -102 70 -156 150 -192 150 -68 322 55 380 271 55 204 -13 310 -197
310 -91 0 -122 -18 -183 -108 -39 -58 -80 -88 -80 -60 0 22 48 136 86 204 45
82 98 149 178 225 l61 58 61 -4 c48 -2 71 -9 103 -31z m871 12 c59 -40 75 -72
77 -150 1 -38 -5 -91 -12 -116 -8 -25 -13 -47 -11 -49 1 -2 36 39 76 89 165
207 210 240 332 240 87 0 115 -18 141 -88 19 -49 19 -112 1 -204 -6 -34 -5
-32 40 28 25 34 86 102 134 151 106 107 148 127 250 118 79 -8 112 -28 130
-83 26 -76 0 -184 -138 -574 -41 -116 -51 -154 -47 -189 3 -24 11 -47 18 -52
42 -27 88 8 129 99 13 28 27 52 32 52 19 0 5 -48 -49 -166 -90 -201 -191 -304
-298 -304 -65 0 -115 20 -149 60 -50 60 -35 133 123 578 33 95 61 185 61 201
0 48 -30 74 -82 74 -59 -1 -101 -24 -139 -76 -60 -83 -88 -148 -207 -497 -51
-148 -57 -174 -57 -248 l0 -82 -105 6 c-69 3 -133 0 -187 -9 l-83 -14 21 31
c56 86 83 155 240 613 32 95 59 185 59 200 0 80 -82 100 -162 39 -78 -60 -124
-137 -205 -346 -94 -240 -127 -367 -121 -466 l3 -59 -202 0 c-131 0 -199 3
-195 10 3 6 22 30 40 55 49 63 91 161 184 420 118 330 128 375 86 404 -51 36
-107 1 -156 -97 -15 -30 -28 -44 -37 -41 -11 5 -6 22 21 82 92 201 179 319
271 367 44 23 134 19 173 -7z m-5771 -106 c104 -52 105 -187 1 -239 -55 -28
-85 -29 -128 -3 -93 57 -95 185 -4 238 44 26 85 27 131 4z m9350 -1346 c-2 -2
-56 -22 -119 -44 -63 -22 -144 -52 -180 -68 -176 -74 -517 -176 -745 -223
-231 -47 -319 -56 -595 -56 -286 0 -278 -1 -660 70 -354 65 -395 70 -620 70
-221 -1 -301 -9 -540 -56 -251 -50 -635 -170 -940 -294 -159 -65 -204 -76
-271 -69 -144 16 -198 117 -91 169 131 62 618 223 877 290 378 96 789 140
1085 116 187 -15 292 -32 566 -91 323 -70 378 -79 539 -90 351 -25 781 44
1401 224 66 19 142 39 169 44 52 10 131 15 124 8z"/>
<path d="M2995 3348 c-11 -6 -28 -20 -37 -32 -16 -20 -18 -86 -18 -967 l0
-945 28 -27 28 -27 450 0 451 0 24 26 24 26 3 936 c2 692 -1 944 -9 965 -24
56 -29 57 -496 57 -292 -1 -434 -4 -448 -12z m236 -931 c76 -50 88 -150 25
-213 -63 -63 -163 -51 -213 25 -79 118 70 267 188 188z"/>
<path d="M3105 2300 c-26 -27 -53 -46 -58 -43 -6 3 -7 1 -3 -5 5 -8 45 -12
119 -12 l111 0 -54 55 c-30 30 -57 55 -60 55 -3 0 -28 -22 -55 -50z"/>
<path d="M6105 3007 c-22 -8 -54 -21 -71 -30 -35 -18 -106 -92 -127 -133 -23
-44 -123 -294 -156 -387 -15 -45 -47 -134 -71 -197 -117 -319 -424 -1233 -446
-1326 -32 -139 18 -278 146 -407 113 -112 139 -122 325 -122 108 0 171 5 225
18 127 29 279 57 377 68 88 10 99 9 189 -17 89 -25 99 -26 164 -15 120 22 186
70 241 177 26 52 33 80 37 143 4 69 1 86 -21 134 -29 64 -63 101 -132 144
-139 86 -432 125 -657 87 -31 -5 -41 -2 -63 20 -22 22 -25 32 -20 59 13 58
280 847 395 1167 67 187 80 233 80 298 0 124 -64 236 -169 295 -44 25 -67 31
-130 34 -45 2 -92 -3 -116 -10z m184 -127 c68 -34 111 -107 111 -187 0 -30
-30 -129 -96 -316 -53 -150 -120 -339 -149 -422 -52 -147 -103 -293 -230 -650
-35 -99 -76 -218 -92 -264 -27 -82 -30 -85 -88 -124 -33 -22 -51 -36 -40 -32
128 50 317 109 407 127 260 51 525 16 645 -86 69 -59 82 -144 36 -237 -53
-103 -154 -137 -283 -94 -101 34 -290 14 -675 -69 -146 -32 -249 -16 -333 51
-71 57 -97 86 -128 146 -52 101 -50 189 11 319 18 40 76 199 128 353 84 247
214 624 297 860 104 299 200 535 232 570 62 71 169 95 247 55z"/>
<path d="M6103 2804 c-7 -20 12 -39 58 -58 32 -13 38 -13 58 1 21 14 21 16 5
34 -16 17 -72 39 -102 39 -7 0 -15 -7 -19 -16z"/>
<path d="M6264 2735 c-4 -8 -17 -15 -30 -15 -26 0 -30 -10 -12 -28 18 -18 68
-15 68 3 0 8 7 15 16 15 22 0 12 21 -14 31 -17 6 -24 5 -28 -6z"/>
<path d="M2530 2295 l-54 -55 114 0 114 0 -54 55 c-30 30 -57 55 -60 55 -3 0
-30 -25 -60 -55z"/>
</g>
</svg>
